HIERARCHY
ROOT Hips
{
	OFFSET -0.179506 -22.333345 2.821913
	CHANNELS 6 Xposition Yposition Zposition Zrotation Yrotation Xrotation 
	JOINT LeftUpLeg
	{
		OFFSET 6.951974 -9.140623 -0.681533
		CHANNELS 3 Zrotation Yrotation Xrotation
		JOINT LeftLeg
		{
			OFFSET 3.427654 -37.519855 -0.449580
			CHANNELS 3 Zrotation Yrotation Xrotation
			JOINT LeftFoot
			{
				OFFSET -1.359570 -39.796059 -4.369333
				CHANNELS 3 Zrotation Yrotation Xrotation
				JOINT LeftToe
				{
					OFFSET 2.635814 -5.579078 11.928840
					CHANNELS 3 Zrotation Yrotation Xrotation
					End Site
					{
						OFFSET 0.000000 0.000000 0.000000
					}
				}
			}
		}
	}
	JOINT RightUpLeg
	{
		OFFSET -6.767048 -9.052170 -0.431982
		CHANNELS 3 Zrotation Yrotation Xrotation
		JOINT RightLeg
		{
			OFFSET -3.829005 -38.256897 -0.885003
			CHANNELS 3 Zrotation Yrotation Xrotation
			JOINT RightFoot
			{
				OFFSET 1.577377 -39.841461 -4.231180
				CHANNELS 3 Zrotation Yrotation Xrotation
				JOINT RightToe
				{
					OFFSET -2.537174 -4.814398 12.334795
					CHANNELS 3 Zrotation Yrotation Xrotation
					End Site
					{
						OFFSET 0.000000 0.000000 0.000000
					}
				}
			}
		}
	}
	JOINT Spine
	{
		OFFSET -0.253288 10.896323 -2.669631
		CHANNELS 3 Zrotation Yrotation Xrotation
		JOINT Spine1
		{
			OFFSET 0.548704 13.518043 0.109247
			CHANNELS 3 Zrotation Yrotation Xrotation
			JOINT Spine2
			{
				OFFSET 0.145701 5.292222 2.542457
				CHANNELS 3 Zrotation Yrotation Xrotation
				JOINT Neck
				{
					OFFSET -0.277840 21.387037 -4.285703
					CHANNELS 3 Zrotation Yrotation Xrotation
					JOINT Head
					{
						OFFSET 0.515184 6.496960 5.134897
						CHANNELS 3 Zrotation Yrotation Xrotation
						End Site
						{
							OFFSET 0.000000 0.000000 0.000000
						}
					}
				}
				JOINT LeftShoulder
				{
					OFFSET 7.884473 12.174932 -3.408961
					CHANNELS 3 Zrotation Yrotation Xrotation
					JOINT LeftArm
					{
						OFFSET 9.097692 3.046888 -0.886815
						CHANNELS 3 Zrotation Yrotation Xrotation
						JOINT LeftForeArm
						{
							OFFSET 25.961220 -1.277207 -2.745643
							CHANNELS 3 Zrotation Yrotation Xrotation
							JOINT LeftHand
							{
								OFFSET 24.923361 0.898606 -0.117091
								CHANNELS 3 Zrotation Yrotation Xrotation
								End Site
								{
									OFFSET 0.000000 0.000000 0.000000
								}
							}
						}
					}
				}
				JOINT RightShoulder
				{
					OFFSET -8.175920 11.883285 -3.861528
					CHANNELS 3 Zrotation Yrotation Xrotation
					JOINT RightArm
					{
						OFFSET -9.601238 3.255117 -0.914307
						CHANNELS 3 Zrotation Yrotation Xrotation
						JOINT RightForeArm
						{
							OFFSET -25.374195 -1.332924 -2.140099
							CHANNELS 3 Zrotation Yrotation Xrotation
							JOINT RightHand
							{
								OFFSET -25.529810 0.777228 -0.555919
								CHANNELS 3 Zrotation Yrotation Xrotation
								End Site
								{
									OFFSET 0.000000 0.000000 0.000000
								}
							}
						}
					}
				}
			}
		}
	}
}
MOTION
Frames: 15
Frame Time: 0.033333
-44.557499 -11.110731 89.723351 -161.633646 2.647728 80.560000 -6.507591 0.272082 5.616208 -2.437445 -8.889414 18.671007 9.091271 11.992039 -22.183517 nan nan nan -5.209189 0.548356 -13.248855 1.643065 4.405068 10.448379 10.683358 0.610219 -0.760059 nan nan nan 4.293637 -2.233177 13.115376 2.071030 -3.297936 3.910820 0.261242 -2.271158 1.246181 -0.411396 24.264266 7.270735 -6.674036 22.993519 5.946817 -26.742485 -2.070420 3.267461 -52.655081 -7.996451 12.429468 2.860614 -30.553463 11.566922 -2.649963 -15.583461 -4.728811 26.244291 -1.192275 5.882511 56.052964 0.792635 13.385498 -17.243958 26.388944 -9.780043 5.519651 10.931871 -4.258249 
-44.735455 -10.186668 89.582291 -161.090238 2.692473 80.816760 -6.311179 0.158287 5.791962 -2.617388 -9.143877 19.112955 9.312550 12.049515 -22.825811 nan nan nan -5.411614 0.194433 -13.954281 1.963220 5.902313 10.080922 11.353265 1.138728 1.164681 nan nan nan 4.579762 -2.124791 12.514059 2.088223 -3.383548 4.178844 0.117536 -2.441441 1.252565 -0.530763 24.534626 7.372138 -6.819296 23.476575 5.649056 -26.569546 -2.158858 3.408818 -52.541536 -8.369910 12.524381 3.114640 -30.978857 11.493222 -2.368030 -15.771312 -5.431887 26.270551 -1.547425 5.846794 56.170438 0.734544 13.451949 -17.254213 26.246176 -9.865560 5.479241 10.849282 -4.211553 
-44.861095 -9.189010 89.445755 -160.486349 2.737238 80.855292 -5.997343 0.235766 6.342063 -2.857229 -9.583206 19.428430 9.469190 12.030875 -23.492580 nan nan nan -5.539460 -0.129745 -14.383309 2.282826 7.071200 10.211017 11.710196 1.544792 2.588104 nan nan nan 4.737449 -1.998581 12.128904 2.105699 -3.458652 4.414276 0.054373 -2.717189 1.241068 -0.606734 24.787241 7.500187 -6.880211 23.805178 5.456098 -26.187159 -2.206848 3.436693 -52.622122 -8.799692 12.610599 3.225895 -31.025239 11.838329 -1.859527 -15.950776 -6.742967 26.220121 -1.873208 5.706347 56.505269 0.725301 13.512898 -17.218376 25.836082 -9.694310 5.577607 10.772783 -4.364279 
-45.059792 -8.255948 89.286919 -159.860304 2.549400 80.936328 -6.126479 0.173864 6.805518 -2.953083 -10.026631 19.776275 9.731808 12.194109 -24.142688 nan nan nan -5.879602 -0.410695 -14.926505 2.376117 7.822564 10.885530 12.013914 1.810445 3.910949 nan nan nan 4.687054 -2.024327 11.809374 2.081173 -3.467274 4.572360 0.020082 -2.861904 1.247392 -0.723328 24.998462 7.507765 -6.949015 24.077272 5.327573 -26.009494 -2.071823 3.284269 -52.482491 -9.192617 12.679123 3.094330 -31.323997 12.139086 -1.428640 -15.959113 -7.422515 26.178662 -2.186022 5.641736 56.695779 0.696925 13.636256 -17.178276 25.619801 -9.650205 5.971077 10.629049 -4.673669 
-45.293182 -7.320528 89.117386 -159.158414 2.447017 80.921010 -6.180346 0.053271 7.341180 -3.072507 -10.533844 20.154782 9.845983 12.476781 -24.829717 nan nan nan -6.320208 -0.342969 -15.194593 2.512450 7.876939 11.736671 12.278114 1.788865 5.262054 nan nan nan 4.698115 -2.276987 11.613648 2.065765 -3.419020 4.705993 -0.032919 -2.871916 1.228206 -0.837253 25.132280 7.510844 -7.022428 24.299657 5.125843 -25.956154 -2.091429 3.323014 -52.169583 -9.378925 12.600060 3.036253 -32.012083 12.031078 -1.413435 -15.886714 -7.544404 26.063556 -2.382194 5.568375 56.850283 0.433022 13.678328 -17.081572 25.684501 -9.752444 6.261198 10.430237 -4.828556 
-45.557594 -6.350273 88.953621 -158.464657 2.404507 80.687533 -6.136299 0.075415 8.202356 -3.216285 -10.982873 20.473398 9.696463 12.711716 -25.492350 nan nan nan -6.811444 0.304774 -15.105031 2.715102 7.792472 12.866013 12.065610 1.557874 5.386789 nan nan nan 4.712720 -2.644378 11.636018 2.089600 -3.339321 4.797324 -0.098134 -2.805915 1.224367 -0.799391 25.316258 7.649387 -7.209586 24.494239 4.887487 -25.876337 -2.156037 3.344548 -51.986019 -9.677689 12.381560 2.951611 -32.217607 11.733808 -1.329196 -16.078641 -7.859762 25.964815 -2.500214 5.495521 56.992306 0.130183 13.666896 -17.078047 25.696858 -9.836251 6.429039 10.263640 -4.755276 
-45.820496 -5.373274 88.771294 -157.656812 2.381056 80.315481 -6.067884 0.138834 9.144877 -3.391659 -11.521153 21.002376 9.484105 12.887185 -26.294928 nan nan nan -7.165304 0.928424 -14.736487 2.825563 8.059662 14.443119 11.509239 1.400589 3.640772 nan nan nan 4.699099 -3.094109 11.779333 2.080079 -3.378594 4.876215 -0.145486 -2.784236 1.394551 -0.735347 25.591576 7.502554 -7.474897 24.676974 4.737543 -25.800214 -2.130752 3.213605 -51.787483 -9.864344 12.136530 2.810482 -32.637984 11.125657 -0.737221 -16.139236 -8.390441 25.905219 -2.462214 5.450817 57.129110 -0.057323 13.735190 -17.108032 25.631356 -9.804851 6.469646 10.183932 -4.297884 
-46.125942 -4.448583 88.572060 -156.773236 2.328407 80.022271 -6.267512 0.032819 9.907943 -3.314566 -12.130572 21.689555 9.128295 13.140888 -27.041189 nan nan nan -7.611266 1.665849 -14.392666 3.020636 8.045090 16.411700 11.212673 1.409087 1.026769 nan nan nan 4.737397 -3.602274 11.929100 2.047285 -3.443761 4.849245 -0.282384 -2.689660 1.688893 -0.615981 26.023000 7.130435 -7.748289 24.631108 4.699658 -25.731678 -2.096345 3.014290 -51.457594 -10.012437 12.060932 2.462719 -33.260551 10.749628 -0.222922 -16.143006 -8.431847 26.009296 -2.446272 5.408027 57.098287 -0.170250 13.734128 -17.120752 25.646256 -10.041850 6.448689 10.131649 -4.224753 
-46.399456 -3.539366 88.378654 -155.888274 2.371983 79.767520 -6.304354 -0.206755 10.566690 -3.374769 -12.615190 22.439428 8.686890 13.341893 -27.706852 nan nan nan -7.898457 2.250715 -14.066749 3.274867 7.600718 18.471366 11.016932 1.775329 -1.379331 nan nan nan 4.906702 -4.011338 12.159302 2.058872 -3.516569 4.708440 -0.413388 -2.635152 1.977868 -0.651543 26.553964 6.694520 -7.906393 24.435364 4.862199 -25.655634 -2.159412 2.723462 -51.379568 -10.156067 12.047025 2.409959 -33.589334 10.195963 0.313321 -16.094117 -8.638331 26.140814 -2.457140 5.332629 57.074487 -0.321876 13.707133 -17.247984 25.726561 -10.175590 6.259938 9.937148 -4.433750 
-46.668507 -2.599402 88.204659 -155.216420 2.409010 79.395377 -6.221317 -0.321239 11.328081 -3.621217 -12.791600 23.181021 8.162679 13.535160 -28.421446 nan nan nan -7.962362 2.702041 -13.562735 3.394990 7.172494 20.281543 10.767982 2.234286 -3.415922 nan nan nan 5.104245 -4.327772 12.376537 2.025324 -3.545327 4.751130 -0.508248 -2.631687 2.171804 -0.775332 26.975408 6.470792 -8.194091 24.390058 4.750935 -25.642968 -2.203806 2.313486 -51.304498 -10.194948 11.928602 2.327777 -33.743760 9.780058 0.777858 -15.944337 -8.766986 26.194123 -2.421118 5.289383 57.044231 -0.387257 13.651255 -17.369344 25.806712 -9.827027 6.499925 9.527085 -4.124149 
-46.937332 -1.684303 88.022072 -154.588355 2.462389 79.130545 -6.166304 -0.459218 11.812527 -3.801829 -12.618719 24.132372 7.727020 13.886644 -29.146273 nan nan nan -7.914232 3.156743 -13.053191 3.464304 7.074081 21.661253 10.553563 2.130101 -5.202004 nan nan nan 5.328130 -4.593637 12.360056 2.000671 -3.557251 4.887241 -0.592002 -2.673819 2.410691 -0.832826 27.218654 6.288803 -8.523486 24.531423 4.630545 -25.631871 -2.265091 2.018885 -51.228701 -10.310954 11.859430 2.242137 -33.806400 9.606865 1.323475 -15.862586 -9.003799 26.157409 -2.370184 5.197550 57.034040 -0.310166 13.679212 -17.339669 25.673694 -9.610688 6.787384 9.287162 -4.091860 
-47.162655 -0.824886 87.853630 -153.915182 2.560558 79.080147 -6.001339 -0.710828 11.855604 -4.043945 -12.213872 25.339176 7.305054 14.172142 -29.716083 nan nan nan -7.716661 3.576597 -12.665543 3.537069 7.250003 22.693087 10.019820 1.453323 -6.890883 nan nan nan 5.525619 -4.802987 12.195296 2.055288 -3.633897 5.037901 -0.628869 -2.730146 2.515982 -0.885670 27.429595 6.206338 -8.687718 24.739992 4.629478 -25.707102 -2.420052 2.078188 -51.058495 -10.366476 11.689786 2.235320 -34.054829 9.213426 2.163347 -15.840903 -9.237373 26.158644 -2.174285 5.220038 57.003713 -0.293217 13.732674 -17.304631 25.446197 -9.665960 6.452357 9.286433 -4.296428 
-47.374496 -0.023122 87.720322 -153.211724 2.718537 79.154963 -5.773789 -0.947054 11.572280 -4.261416 -11.739521 26.775103 6.832526 14.433713 -30.114722 nan nan nan -7.376484 3.711618 -12.367039 3.571841 7.527191 23.541429 9.082423 0.680771 -8.482751 nan nan nan 5.823387 -4.970822 12.032024 2.134422 -3.747827 5.154922 -0.661315 -2.848262 2.488992 -1.107687 27.484640 6.248261 -8.907674 25.020604 4.368542 -25.991550 -2.596877 2.230855 -50.765349 -10.183166 11.539987 2.497558 -34.630413 8.643145 2.883132 -15.462412 -9.529613 26.213072 -1.874181 5.253979 56.811602 -0.425770 13.797519 -17.122074 25.353037 -9.745190 5.752671 9.316605 -4.545225 
-47.598274 0.732091 87.615761 -152.470839 2.930372 79.308510 -5.524219 -1.198980 11.123183 -4.395720 -11.146524 28.286616 6.485360 14.640122 -30.443344 nan nan nan -6.976003 3.509000 -12.121917 3.505039 7.689152 24.255703 8.185870 0.012279 -9.898777 nan nan nan 6.197749 -5.099114 11.840432 2.240408 -3.904974 5.210514 -0.664108 -2.919517 2.506772 -1.347539 27.388879 6.165076 -9.139727 25.385781 4.189308 -26.368979 -2.788704 2.267589 -50.695300 -10.098120 11.446052 2.993368 -34.881710 7.908752 3.344046 -15.031973 -9.865436 26.245071 -1.610529 5.194772 56.590464 -0.418367 13.760692 -16.942752 25.021464 -9.891392 5.409025 9.411498 -4.771352 
-47.846786 1.441510 87.525787 -151.653789 3.167779 79.496150 -5.213023 -1.451032 10.578492 -4.553963 -10.349101 29.814039 6.096781 14.683410 -30.649709 nan nan nan -6.624384 2.994824 -11.924479 3.350709 7.564871 24.990201 7.438685 -0.251929 -11.156211 nan nan nan 6.566090 -5.216837 11.691798 2.420908 -4.157772 5.158029 -0.635378 -2.916794 2.574150 -1.579442 27.344834 5.867242 -9.243886 25.773851 4.379850 -26.649535 -2.970971 2.181835 -50.995691 -10.204753 11.398462 3.353086 -34.482095 7.434487 4.228970 -15.134555 -10.454558 26.177049 -1.414961 5.125388 56.429058 -0.237993 13.591950 -16.766046 24.486244 -9.811033 5.046772 9.819847 -5.035641 
